<svg xmlns="http://www.w3.org/2000/svg" xmlns:xlink="http://www.w3.org/1999/xlink" width="500" zoomAndPan="magnify" viewBox="0 0 375 374.999991" height="500" preserveAspectRatio="xMidYMid meet" version="1.0"><defs><g/><clipPath id="7bc68c62a0"><path d="M 12.382812 10.40625 L 364.59375 10.40625 L 364.59375 362.617188 L 12.382812 362.617188 Z M 12.382812 10.40625 " clip-rule="nonzero"/></clipPath><clipPath id="36db98bb52"><path d="M 188.488281 10.40625 C 91.226562 10.40625 12.382812 89.253906 12.382812 186.511719 C 12.382812 283.773438 91.226562 362.617188 188.488281 362.617188 C 285.746094 362.617188 364.59375 283.773438 364.59375 186.511719 C 364.59375 89.253906 285.746094 10.40625 188.488281 10.40625 Z M 188.488281 10.40625 " clip-rule="nonzero"/></clipPath><clipPath id="cbe4ff744a"><path d="M 0.382812 0.40625 L 352.59375 0.40625 L 352.59375 352.617188 L 0.382812 352.617188 Z M 0.382812 0.40625 " clip-rule="nonzero"/></clipPath><clipPath id="70c0d1b3eb"><path d="M 176.488281 0.40625 C 79.226562 0.40625 0.382812 79.253906 0.382812 176.511719 C 0.382812 273.773438 79.226562 352.617188 176.488281 352.617188 C 273.746094 352.617188 352.59375 273.773438 352.59375 176.511719 C 352.59375 79.253906 273.746094 0.40625 176.488281 0.40625 Z M 176.488281 0.40625 " clip-rule="nonzero"/></clipPath><clipPath id="013702b96b"><rect x="0" width="353" y="0" height="353"/></clipPath><clipPath id="bb9fa40102"><path d="M 44.328125 124 L 338.328125 124 L 338.328125 252.648438 L 44.328125 252.648438 Z M 44.328125 124 " clip-rule="nonzero"/></clipPath><clipPath id="864851a491"><path d="M 94 122.148438 L 187 122.148438 L 187 160 L 94 160 Z M 94 122.148438 " clip-rule="nonzero"/></clipPath><clipPath id="f477122dc1"><path d="M 50.296875 50.355469 L 324.796875 50.355469 L 324.796875 324.855469 L 50.296875 324.855469 Z M 50.296875 50.355469 " clip-rule="nonzero"/></clipPath><clipPath id="0e378409dd"><path d="M 314.652344 228.40625 L 328.589844 228.40625 L 328.589844 238.984375 L 314.652344 238.984375 Z M 314.652344 228.40625 " clip-rule="nonzero"/></clipPath><clipPath id="deb28d7df9"><path d="M 328.28125 232.296875 C 321.285156 238.746094 319.773438 239.292969 319.089844 238.746094 C 318.128906 238.058594 317.578125 233.941406 318.128906 233.121094 C 318.675781 232.570312 320.324219 232.433594 320.734375 232.980469 C 321.421875 233.53125 321.148438 237.097656 320.597656 237.648438 C 320.050781 238.058594 318.953125 238.058594 318.539062 237.648438 C 317.992188 237.371094 318.128906 236.273438 318.128906 235.175781 C 318.265625 233.53125 318.675781 229.550781 319.636719 228.730469 C 320.324219 228.316406 321.695312 228.316406 322.105469 228.867188 C 322.792969 229.550781 322.246094 232.84375 321.695312 234.21875 C 321.148438 235.453125 320.1875 236.824219 319.089844 237.234375 C 318.265625 237.648438 316.617188 237.648438 315.933594 236.960938 C 314.835938 236 314.285156 231.472656 314.972656 230.375 C 315.382812 229.6875 316.617188 229.414062 317.167969 229.550781 C 317.578125 229.6875 317.855469 230.238281 318.128906 230.785156 C 318.402344 231.609375 318.539062 233.941406 318.128906 234.765625 C 317.855469 235.316406 317.03125 235.863281 316.617188 235.726562 C 316.207031 235.726562 315.519531 235.039062 315.382812 234.355469 C 315.109375 233.53125 315.519531 231.882812 316.070312 231.0625 C 316.617188 230.375 317.992188 229.550781 318.539062 229.6875 C 318.953125 229.828125 319.226562 230.375 319.5 231.0625 C 319.773438 232.296875 320.050781 235.726562 319.5 236.6875 C 319.089844 237.371094 318.402344 237.785156 317.992188 237.785156 C 317.578125 237.785156 316.894531 237.097656 316.757812 236.414062 C 316.480469 235.316406 317.03125 231.609375 317.855469 231.0625 C 318.675781 230.648438 320.460938 231.199219 321.007812 231.882812 C 321.558594 232.570312 321.148438 234.765625 321.285156 234.765625 C 321.285156 234.765625 321.558594 232.023438 321.285156 231.882812 C 321.007812 231.882812 320.460938 233.257812 320.050781 233.257812 C 319.5 233.257812 318.402344 232.296875 318.539062 231.882812 C 318.539062 231.472656 320.460938 230.648438 320.734375 230.925781 C 321.007812 231.0625 320.460938 233.257812 320.050781 233.257812 C 319.773438 233.257812 318.539062 231.472656 318.675781 231.199219 C 318.8125 230.925781 321.007812 231.0625 321.148438 231.472656 C 321.285156 231.882812 320.460938 233.257812 320.050781 233.257812 C 319.636719 233.394531 318.675781 231.746094 318.539062 231.882812 C 318.265625 232.023438 318.539062 234.078125 318.539062 234.078125 C 318.402344 234.078125 318.128906 232.84375 318.402344 232.707031 C 318.539062 232.433594 319.636719 232.707031 319.773438 233.121094 C 320.1875 233.941406 318.953125 237.511719 318.265625 237.785156 C 317.855469 237.921875 317.03125 237.371094 316.757812 236.6875 C 316.34375 236 316.34375 234.078125 316.757812 233.257812 C 317.167969 232.433594 318.675781 231.335938 318.8125 231.472656 C 319.089844 231.609375 317.714844 235.589844 316.894531 235.726562 C 316.480469 235.863281 315.660156 235.316406 315.382812 234.765625 C 315.109375 233.941406 315.519531 232.023438 315.933594 231.609375 C 316.34375 231.199219 317.167969 231.199219 317.441406 231.472656 C 317.855469 231.882812 316.894531 234.355469 317.304688 234.628906 C 317.578125 234.902344 318.402344 234.628906 318.8125 234.21875 C 319.5 233.53125 318.8125 229.550781 319.636719 228.730469 C 320.1875 228.316406 321.695312 228.316406 322.105469 228.867188 C 322.929688 229.828125 321.695312 235.726562 320.871094 237.097656 C 320.460938 237.785156 319.773438 238.195312 319.363281 238.195312 C 318.953125 238.058594 318.265625 237.371094 318.128906 236.824219 C 317.855469 235.726562 318.128906 232.84375 318.8125 232.296875 C 319.226562 232.023438 320.324219 232.433594 320.734375 232.980469 C 321.285156 233.667969 321.007812 236.550781 320.597656 236.960938 C 320.1875 237.097656 319.089844 236.824219 319.089844 236.414062 C 318.953125 235.453125 324.851562 230.648438 326.636719 230.101562 C 327.320312 229.828125 328.144531 229.964844 328.417969 230.238281 C 328.691406 230.648438 328.28125 232.296875 328.28125 232.296875 " clip-rule="nonzero"/></clipPath><clipPath id="ad167bdf13"><path d="M 0.652344 0.40625 L 14.589844 0.40625 L 14.589844 10.984375 L 0.652344 10.984375 Z M 0.652344 0.40625 " clip-rule="nonzero"/></clipPath><clipPath id="abb5cb595f"><path d="M 14.28125 4.296875 C 7.285156 10.746094 5.773438 11.292969 5.089844 10.746094 C 4.128906 10.058594 3.578125 5.941406 4.128906 5.121094 C 4.675781 4.570312 6.324219 4.433594 6.734375 4.980469 C 7.421875 5.53125 7.148438 9.097656 6.597656 9.648438 C 6.050781 10.058594 4.953125 10.058594 4.539062 9.648438 C 3.992188 9.371094 4.128906 8.273438 4.128906 7.175781 C 4.265625 5.53125 4.675781 1.550781 5.636719 0.730469 C 6.324219 0.316406 7.695312 0.316406 8.105469 0.867188 C 8.792969 1.550781 8.246094 4.84375 7.695312 6.21875 C 7.148438 7.453125 6.1875 8.824219 5.089844 9.234375 C 4.265625 9.648438 2.617188 9.648438 1.933594 8.960938 C 0.835938 8 0.285156 3.472656 0.972656 2.375 C 1.382812 1.6875 2.617188 1.414062 3.167969 1.550781 C 3.578125 1.6875 3.855469 2.238281 4.128906 2.785156 C 4.402344 3.609375 4.539062 5.941406 4.128906 6.765625 C 3.855469 7.316406 3.03125 7.863281 2.617188 7.726562 C 2.207031 7.726562 1.519531 7.039062 1.382812 6.355469 C 1.109375 5.53125 1.519531 3.882812 2.070312 3.0625 C 2.617188 2.375 3.992188 1.550781 4.539062 1.6875 C 4.953125 1.828125 5.226562 2.375 5.5 3.0625 C 5.773438 4.296875 6.050781 7.726562 5.5 8.6875 C 5.089844 9.371094 4.402344 9.785156 3.992188 9.785156 C 3.578125 9.785156 2.894531 9.097656 2.757812 8.414062 C 2.480469 7.316406 3.03125 3.609375 3.855469 3.0625 C 4.675781 2.648438 6.460938 3.199219 7.007812 3.882812 C 7.558594 4.570312 7.148438 6.765625 7.285156 6.765625 C 7.285156 6.765625 7.558594 4.023438 7.285156 3.882812 C 7.007812 3.882812 6.460938 5.257812 6.050781 5.257812 C 5.5 5.257812 4.402344 4.296875 4.539062 3.882812 C 4.539062 3.472656 6.460938 2.648438 6.734375 2.925781 C 7.007812 3.0625 6.460938 5.257812 6.050781 5.257812 C 5.773438 5.257812 4.539062 3.472656 4.675781 3.199219 C 4.8125 2.925781 7.007812 3.0625 7.148438 3.472656 C 7.285156 3.882812 6.460938 5.257812 6.050781 5.257812 C 5.636719 5.394531 4.675781 3.746094 4.539062 3.882812 C 4.265625 4.023438 4.539062 6.078125 4.539062 6.078125 C 4.402344 6.078125 4.128906 4.84375 4.402344 4.707031 C 4.539062 4.433594 5.636719 4.707031 5.773438 5.121094 C 6.1875 5.941406 4.953125 9.511719 4.265625 9.785156 C 3.855469 9.921875 3.03125 9.371094 2.757812 8.6875 C 2.34375 8 2.34375 6.078125 2.757812 5.257812 C 3.167969 4.433594 4.675781 3.335938 4.8125 3.472656 C 5.089844 3.609375 3.714844 7.589844 2.894531 7.726562 C 2.480469 7.863281 1.660156 7.316406 1.382812 6.765625 C 1.109375 5.941406 1.519531 4.023438 1.933594 3.609375 C 2.34375 3.199219 3.167969 3.199219 3.441406 3.472656 C 3.855469 3.882812 2.894531 6.355469 3.304688 6.628906 C 3.578125 6.902344 4.402344 6.628906 4.8125 6.21875 C 5.5 5.53125 4.8125 1.550781 5.636719 0.730469 C 6.1875 0.316406 7.695312 0.316406 8.105469 0.867188 C 8.929688 1.828125 7.695312 7.726562 6.871094 9.097656 C 6.460938 9.785156 5.773438 10.195312 5.363281 10.195312 C 4.953125 10.058594 4.265625 9.371094 4.128906 8.824219 C 3.855469 7.726562 4.128906 4.84375 4.8125 4.296875 C 5.226562 4.023438 6.324219 4.433594 6.734375 4.980469 C 7.285156 5.667969 7.007812 8.550781 6.597656 8.960938 C 6.1875 9.097656 5.089844 8.824219 5.089844 8.414062 C 4.953125 7.453125 10.851562 2.648438 12.636719 2.101562 C 13.320312 1.828125 14.144531 1.964844 14.417969 2.238281 C 14.691406 2.648438 14.28125 4.296875 14.28125 4.296875 " clip-rule="nonzero"/></clipPath><clipPath id="36aaf9a0d0"><rect x="0" width="15" y="0" height="11"/></clipPath><clipPath id="9519debf4b"><path d="M 55.253906 232.101562 L 60.804688 232.101562 L 60.804688 244.410156 L 55.253906 244.410156 Z M 55.253906 232.101562 " clip-rule="nonzero"/></clipPath><clipPath id="d5613fc88f"><path d="M 56.757812 242.996094 C 56.207031 231.746094 57.167969 231.882812 57.855469 232.296875 C 58.953125 233.121094 60.875 237.511719 60.738281 239.15625 C 60.597656 240.117188 59.914062 241.078125 59.363281 241.214844 C 58.816406 241.351562 58.128906 240.800781 57.71875 240.253906 C 56.757812 239.15625 54.972656 235.726562 55.386719 234.628906 C 55.660156 233.941406 57.582031 233.53125 57.71875 233.667969 C 57.992188 233.941406 57.304688 236 56.894531 236 C 56.484375 236 55.386719 234.21875 55.660156 233.804688 C 55.796875 233.53125 57.992188 233.941406 58.128906 234.355469 C 58.265625 234.628906 57.03125 236 56.621094 236 C 56.207031 236 55.386719 234.492188 55.523438 234.078125 C 55.660156 233.667969 56.621094 233.257812 57.304688 233.394531 C 57.992188 233.53125 59.226562 234.902344 59.5 235.863281 C 59.777344 236.824219 59.777344 238.332031 59.363281 238.882812 C 58.953125 239.292969 58.265625 239.566406 57.855469 239.429688 C 56.894531 238.882812 54.835938 233.804688 55.386719 232.84375 C 55.796875 232.296875 57.582031 232.160156 57.992188 232.570312 C 58.402344 232.980469 57.445312 234.902344 57.71875 236 C 57.992188 237.511719 59.640625 239.292969 59.777344 240.800781 C 59.914062 242.039062 59.5 244.09375 58.953125 244.371094 C 58.402344 244.507812 56.757812 242.996094 56.757812 242.996094 " clip-rule="nonzero"/></clipPath><clipPath id="d4ead34bd2"><path d="M 0.253906 0.101562 L 5.804688 0.101562 L 5.804688 12.410156 L 0.253906 12.410156 Z M 0.253906 0.101562 " clip-rule="nonzero"/></clipPath><clipPath id="d6dd07cd81"><path d="M 1.757812 10.996094 C 1.207031 -0.253906 2.167969 -0.117188 2.855469 0.296875 C 3.953125 1.121094 5.875 5.511719 5.738281 7.15625 C 5.597656 8.117188 4.914062 9.078125 4.363281 9.214844 C 3.816406 9.351562 3.128906 8.800781 2.71875 8.253906 C 1.757812 7.15625 -0.0273438 3.726562 0.386719 2.628906 C 0.660156 1.941406 2.582031 1.53125 2.71875 1.667969 C 2.992188 1.941406 2.304688 4 1.894531 4 C 1.484375 4 0.386719 2.21875 0.660156 1.804688 C 0.796875 1.53125 2.992188 1.941406 3.128906 2.355469 C 3.265625 2.628906 2.03125 4 1.621094 4 C 1.207031 4 0.386719 2.492188 0.523438 2.078125 C 0.660156 1.667969 1.621094 1.257812 2.304688 1.394531 C 2.992188 1.53125 4.226562 2.902344 4.5 3.863281 C 4.777344 4.824219 4.777344 6.332031 4.363281 6.882812 C 3.953125 7.292969 3.265625 7.566406 2.855469 7.429688 C 1.894531 6.882812 -0.164062 1.804688 0.386719 0.84375 C 0.796875 0.296875 2.582031 0.160156 2.992188 0.570312 C 3.402344 0.980469 2.445312 2.902344 2.71875 4 C 2.992188 5.511719 4.640625 7.292969 4.777344 8.800781 C 4.914062 10.039062 4.5 12.09375 3.953125 12.371094 C 3.402344 12.507812 1.757812 10.996094 1.757812 10.996094 " clip-rule="nonzero"/></clipPath><clipPath id="15f2ed0b98"><rect x="0" width="6" y="0" height="13"/></clipPath><clipPath id="44fdc49e97"><path d="M 8.46875 8.46875 L 366.21875 8.46875 L 366.21875 366.21875 L 8.46875 366.21875 Z M 8.46875 8.46875 " clip-rule="nonzero"/></clipPath><clipPath id="addecffac2"><rect x="0" width="336" y="0" height="149"/></clipPath><clipPath id="b7444bb3fc"><path d="M 50.296875 50.355469 L 324.796875 50.355469 L 324.796875 251.355469 L 50.296875 251.355469 Z M 50.296875 50.355469 " clip-rule="nonzero"/></clipPath></defs><g clip-path="url(#7bc68c62a0)"><g clip-path="url(#36db98bb52)"><g transform="matrix(1, 0, 0, 1, 12, 10)"><g clip-path="url(#013702b96b)"><g clip-path="url(#cbe4ff744a)"><g clip-path="url(#70c0d1b3eb)"><path fill="#ffffff" d="M 0.382812 0.40625 L 352.59375 0.40625 L 352.59375 352.617188 L 0.382812 352.617188 Z M 0.382812 0.40625 " fill-opacity="1" fill-rule="nonzero"/></g></g></g></g></g></g><path fill="#000000" d="M 152.246094 163.570312 L 108.648438 164.671875 L 104.988281 181.425781 L 96.949219 181.425781 L 103.054688 162.640625 L 152.496094 162.640625 Z M 156.753906 159.492188 L 99.539062 159.492188 L 91.679688 183.28125 L 153.082031 183.28125 L 156.753906 159.492188 " fill-opacity="1" fill-rule="nonzero"/><g clip-path="url(#bb9fa40102)"><path fill="#000000" d="M 302.539062 250.519531 C 302.519531 250.511719 302.5 250.511719 302.484375 250.503906 C 302.40625 250.480469 302.324219 250.445312 302.246094 250.398438 C 302.230469 250.386719 302.210938 250.375 302.195312 250.363281 C 302.171875 250.347656 302.148438 250.328125 302.128906 250.3125 C 302.117188 250.304688 302.105469 250.292969 302.097656 250.289062 C 302.074219 250.269531 302.050781 250.246094 302.027344 250.222656 C 301.96875 250.171875 301.917969 250.113281 301.863281 250.046875 C 301.828125 250 301.785156 249.945312 301.746094 249.890625 C 301.6875 249.808594 301.632812 249.71875 301.578125 249.621094 C 301.550781 249.570312 301.519531 249.519531 301.492188 249.46875 C 301.472656 249.429688 301.453125 249.390625 301.433594 249.347656 C 301.414062 249.304688 301.390625 249.265625 301.375 249.222656 C 301.359375 249.1875 301.339844 249.148438 301.324219 249.109375 C 301.308594 249.074219 301.289062 249.035156 301.277344 248.996094 C 301.265625 248.976562 301.257812 248.960938 301.25 248.9375 C 301.238281 248.902344 301.222656 248.867188 301.207031 248.828125 C 301.199219 248.808594 301.1875 248.78125 301.175781 248.757812 C 301.160156 248.714844 301.148438 248.671875 301.132812 248.632812 C 301.117188 248.589844 301.101562 248.546875 301.089844 248.5 C 301.074219 248.457031 301.058594 248.414062 301.042969 248.367188 C 301.019531 248.296875 300.996094 248.222656 300.976562 248.152344 C 300.957031 248.101562 300.941406 248.042969 300.925781 247.984375 C 300.917969 247.96875 300.914062 247.949219 300.914062 247.933594 C 300.890625 247.855469 300.867188 247.78125 300.847656 247.703125 C 300.824219 247.625 300.804688 247.546875 300.789062 247.46875 C 300.773438 247.402344 300.753906 247.335938 300.738281 247.269531 C 300.707031 247.132812 300.679688 246.992188 300.648438 246.847656 C 300.632812 246.789062 300.625 246.734375 300.613281 246.679688 C 300.566406 246.441406 300.519531 246.191406 300.480469 245.933594 C 300.46875 245.859375 300.457031 245.785156 300.445312 245.707031 C 300.433594 245.625 300.421875 245.542969 300.410156 245.460938 C 300.398438 245.378906 300.386719 245.296875 300.378906 245.210938 C 300.363281 245.105469 300.351562 245.003906 300.339844 244.902344 C 300.335938 244.878906 300.332031 244.859375 300.328125 244.835938 C 300.316406 244.722656 300.304688 244.601562 300.289062 244.484375 C 300.277344 244.34375 300.265625 244.199219 300.253906 244.054688 C 300.25 244.046875 300.25 244.039062 300.25 244.03125 C 300.246094 243.964844 300.238281 243.894531 300.234375 243.824219 C 300.222656 243.679688 300.210938 243.539062 300.203125 243.394531 C 300.195312 243.242188 300.1875 243.09375 300.175781 242.945312 C 300.171875 242.8125 300.164062 242.679688 300.160156 242.546875 C 300.15625 242.449219 300.152344 242.355469 300.152344 242.253906 C 300.152344 242.207031 300.148438 242.15625 300.148438 242.105469 L 300.148438 242.09375 C 300.144531 241.835938 300.140625 241.574219 300.140625 241.3125 C 300.140625 236.222656 301.277344 232.09375 302.675781 232.09375 C 302.765625 232.09375 302.847656 232.109375 302.925781 232.140625 C 302.945312 232.144531 302.964844 232.152344 302.980469 232.160156 C 303 232.167969 303.019531 232.175781 303.035156 232.1875 C 303.054688 232.195312 303.070312 232.203125 303.085938 232.214844 C 303.109375 232.226562 303.132812 232.242188 303.152344 232.257812 C 303.171875 232.269531 303.191406 232.28125 303.210938 232.296875 C 303.246094 232.324219 303.277344 232.351562 303.316406 232.382812 C 303.335938 232.40625 303.359375 232.425781 303.378906 232.449219 C 303.410156 232.480469 303.433594 232.511719 303.460938 232.542969 C 303.492188 232.574219 303.519531 232.605469 303.542969 232.640625 C 303.554688 232.65625 303.566406 232.667969 303.574219 232.6875 C 303.59375 232.710938 303.609375 232.730469 303.621094 232.75 C 303.652344 232.796875 303.683594 232.84375 303.710938 232.890625 C 303.726562 232.914062 303.738281 232.9375 303.757812 232.964844 C 303.773438 232.992188 303.789062 233.019531 303.804688 233.046875 C 303.828125 233.085938 303.847656 233.125 303.867188 233.164062 C 303.878906 233.183594 303.890625 233.207031 303.902344 233.226562 C 303.910156 233.25 303.921875 233.265625 303.929688 233.289062 C 303.945312 233.316406 303.957031 233.34375 303.972656 233.375 C 304.023438 233.492188 304.078125 233.613281 304.132812 233.746094 C 304.296875 234.160156 304.441406 234.644531 304.578125 235.1875 C 304.597656 235.257812 304.609375 235.324219 304.625 235.394531 C 304.648438 235.488281 304.667969 235.585938 304.6875 235.679688 C 304.710938 235.777344 304.726562 235.875 304.75 235.972656 C 304.773438 236.078125 304.789062 236.179688 304.808594 236.289062 C 304.828125 236.402344 304.851562 236.519531 304.871094 236.644531 C 304.882812 236.734375 304.898438 236.828125 304.910156 236.917969 C 304.917969 236.949219 304.917969 236.980469 304.925781 237.011719 C 304.9375 237.09375 304.949219 237.179688 304.960938 237.265625 C 304.96875 237.328125 304.976562 237.386719 304.984375 237.453125 C 304.996094 237.539062 305.007812 237.625 305.015625 237.714844 C 305.023438 237.75 305.027344 237.789062 305.03125 237.832031 C 305.035156 237.890625 305.042969 237.949219 305.050781 238.007812 C 305.074219 238.222656 305.09375 238.445312 305.109375 238.667969 C 305.121094 238.75 305.125 238.832031 305.132812 238.914062 C 305.136719 238.957031 305.140625 239 305.140625 239.039062 C 305.152344 239.21875 305.164062 239.398438 305.171875 239.578125 C 305.183594 239.726562 305.1875 239.878906 305.195312 240.03125 C 305.199219 240.144531 305.203125 240.257812 305.203125 240.371094 C 305.210938 240.527344 305.210938 240.679688 305.21875 240.835938 C 305.21875 240.996094 305.21875 241.152344 305.21875 241.3125 C 305.21875 246.402344 304.082031 250.53125 302.675781 250.53125 C 302.632812 250.53125 302.585938 250.527344 302.539062 250.519531 Z M 298.453125 241.429688 C 298.449219 241.574219 298.445312 241.71875 298.441406 241.863281 C 298.4375 242.042969 298.429688 242.214844 298.421875 242.390625 C 298.414062 242.5 298.40625 242.609375 298.402344 242.714844 C 298.394531 242.839844 298.386719 242.964844 298.378906 243.089844 C 298.371094 243.21875 298.355469 243.34375 298.34375 243.46875 C 298.339844 243.519531 298.335938 243.570312 298.332031 243.617188 C 298.324219 243.699219 298.316406 243.777344 298.304688 243.855469 C 298.300781 243.933594 298.289062 244.015625 298.28125 244.09375 C 298.277344 244.136719 298.269531 244.183594 298.265625 244.234375 C 298.246094 244.371094 298.230469 244.511719 298.210938 244.648438 C 298.195312 244.726562 298.1875 244.804688 298.175781 244.882812 C 298.152344 245.054688 298.121094 245.222656 298.09375 245.390625 C 298.078125 245.472656 298.0625 245.550781 298.046875 245.632812 C 298.027344 245.753906 298 245.875 297.976562 245.996094 C 297.964844 246.054688 297.953125 246.113281 297.9375 246.171875 C 297.921875 246.257812 297.902344 246.339844 297.882812 246.421875 C 297.859375 246.519531 297.835938 246.617188 297.8125 246.714844 C 297.785156 246.808594 297.761719 246.902344 297.734375 246.996094 C 297.71875 247.0625 297.703125 247.125 297.683594 247.183594 C 297.667969 247.253906 297.644531 247.324219 297.625 247.394531 C 297.609375 247.445312 297.59375 247.492188 297.578125 247.539062 C 297.554688 247.613281 297.53125 247.683594 297.507812 247.753906 C 297.480469 247.824219 297.460938 247.894531 297.433594 247.960938 C 297.433594 247.96875 297.429688 247.976562 297.425781 247.988281 C 297.402344 248.046875 297.382812 248.105469 297.359375 248.160156 C 297.332031 248.226562 297.308594 248.292969 297.28125 248.355469 C 297.265625 248.402344 297.242188 248.449219 297.222656 248.496094 C 297.164062 248.632812 297.105469 248.761719 297.039062 248.886719 C 297.015625 248.929688 296.996094 248.976562 296.972656 249.019531 C 296.945312 249.078125 296.914062 249.128906 296.882812 249.179688 C 296.863281 249.21875 296.839844 249.257812 296.816406 249.296875 C 296.699219 249.492188 296.578125 249.667969 296.449219 249.8125 C 296.421875 249.84375 296.398438 249.875 296.371094 249.898438 C 296.296875 249.984375 296.21875 250.058594 296.140625 250.125 C 296.109375 250.152344 296.074219 250.175781 296.046875 250.199219 C 296.011719 250.21875 295.984375 250.242188 295.953125 250.257812 C 295.933594 250.269531 295.914062 250.285156 295.894531 250.292969 C 295.863281 250.3125 295.835938 250.328125 295.808594 250.339844 C 295.78125 250.351562 295.757812 250.367188 295.726562 250.375 C 295.703125 250.386719 295.683594 250.394531 295.65625 250.402344 C 295.636719 250.410156 295.613281 250.417969 295.585938 250.425781 C 295.523438 250.441406 295.460938 250.453125 295.394531 250.457031 C 295.367188 250.460938 295.335938 250.460938 295.304688 250.460938 C 295.257812 250.460938 295.207031 250.460938 295.160156 250.453125 C 295.132812 250.445312 295.105469 250.445312 295.078125 250.4375 C 295.058594 250.429688 295.039062 250.429688 295.019531 250.421875 C 294.984375 250.414062 294.949219 250.402344 294.921875 250.390625 C 294.890625 250.378906 294.867188 250.371094 294.839844 250.359375 C 294.820312 250.351562 294.800781 250.34375 294.78125 250.328125 C 294.753906 250.316406 294.71875 250.300781 294.6875 250.277344 C 294.671875 250.269531 294.65625 250.257812 294.640625 250.25 C 294.617188 250.234375 294.597656 250.21875 294.574219 250.207031 C 294.539062 250.179688 294.507812 250.15625 294.472656 250.125 C 294.457031 250.109375 294.4375 250.097656 294.421875 250.082031 C 294.394531 250.058594 294.367188 250.03125 294.34375 250.007812 C 294.3125 249.984375 294.292969 249.957031 294.265625 249.929688 C 294.230469 249.890625 294.195312 249.855469 294.164062 249.816406 C 294.144531 249.796875 294.128906 249.777344 294.109375 249.753906 C 294.089844 249.730469 294.074219 249.707031 294.058594 249.683594 C 294.023438 249.644531 293.992188 249.601562 293.960938 249.554688 C 293.804688 249.332031 293.65625 249.078125 293.515625 248.785156 C 293.496094 248.742188 293.476562 248.695312 293.457031 248.648438 C 293.390625 248.507812 293.324219 248.359375 293.265625 248.203125 C 293.246094 248.152344 293.226562 248.097656 293.207031 248.042969 C 293.183594 247.984375 293.164062 247.921875 293.140625 247.859375 C 293.128906 247.828125 293.117188 247.796875 293.109375 247.765625 C 293.089844 247.714844 293.070312 247.65625 293.050781 247.597656 C 293.03125 247.539062 293.015625 247.480469 292.996094 247.421875 C 292.972656 247.339844 292.945312 247.257812 292.921875 247.171875 C 292.90625 247.117188 292.886719 247.058594 292.871094 247 C 292.863281 246.957031 292.851562 246.914062 292.839844 246.871094 C 292.820312 246.796875 292.796875 246.71875 292.777344 246.636719 C 292.777344 246.628906 292.777344 246.621094 292.777344 246.617188 C 292.753906 246.53125 292.730469 246.445312 292.714844 246.355469 C 292.671875 246.179688 292.632812 245.996094 292.59375 245.808594 C 292.574219 245.699219 292.554688 245.589844 292.535156 245.480469 C 292.519531 245.398438 292.503906 245.320312 292.492188 245.242188 C 292.484375 245.183594 292.472656 245.128906 292.460938 245.070312 C 292.460938 245.046875 292.457031 245.023438 292.453125 244.996094 C 292.4375 244.917969 292.425781 244.832031 292.414062 244.75 C 292.394531 244.589844 292.371094 244.429688 292.351562 244.269531 C 292.34375 244.214844 292.335938 244.160156 292.332031 244.105469 C 292.320312 243.992188 292.308594 243.882812 292.292969 243.773438 C 292.292969 243.753906 292.292969 243.738281 292.292969 243.722656 C 292.28125 243.632812 292.269531 243.546875 292.261719 243.453125 C 292.242188 243.242188 292.226562 243.03125 292.214844 242.8125 C 292.207031 242.71875 292.203125 242.621094 292.195312 242.523438 C 292.191406 242.402344 292.183594 242.277344 292.179688 242.152344 C 292.160156 241.757812 292.152344 241.351562 292.152344 240.941406 C 292.152344 235.683594 293.5625 231.421875 295.304688 231.421875 C 295.328125 231.421875 295.351562 231.421875 295.375 231.421875 C 295.390625 231.421875 295.40625 231.421875 295.421875 231.429688 C 295.457031 231.429688 295.496094 231.4375 295.527344 231.445312 C 295.542969 231.445312 295.554688 231.449219 295.566406 231.453125 C 295.59375 231.457031 295.617188 231.464844 295.640625 231.472656 C 295.683594 231.488281 295.734375 231.503906 295.777344 231.527344 C 295.796875 231.535156 295.816406 231.542969 295.828125 231.554688 C 295.882812 231.578125 295.933594 231.609375 295.988281 231.644531 C 296.007812 231.660156 296.035156 231.675781 296.054688 231.691406 C 296.078125 231.707031 296.101562 231.722656 296.121094 231.742188 C 296.144531 231.757812 296.167969 231.777344 296.1875 231.796875 C 296.21875 231.824219 296.253906 231.855469 296.285156 231.886719 C 296.296875 231.902344 296.316406 231.917969 296.332031 231.933594 C 296.347656 231.953125 296.363281 231.96875 296.378906 231.984375 C 296.394531 232.003906 296.414062 232.027344 296.433594 232.046875 C 296.453125 232.070312 296.472656 232.09375 296.488281 232.117188 C 296.546875 232.183594 296.601562 232.257812 296.65625 232.335938 C 296.675781 232.363281 296.691406 232.386719 296.707031 232.414062 C 296.726562 232.441406 296.746094 232.46875 296.761719 232.496094 C 296.789062 232.539062 296.816406 232.582031 296.84375 232.628906 C 296.871094 232.675781 296.898438 232.71875 296.921875 232.769531 C 297.027344 232.957031 297.128906 233.167969 297.226562 233.394531 C 297.242188 233.433594 297.261719 233.472656 297.28125 233.515625 C 297.328125 233.636719 297.378906 233.761719 297.425781 233.894531 C 297.453125 233.972656 297.476562 234.050781 297.507812 234.128906 C 297.53125 234.191406 297.550781 234.261719 297.574219 234.332031 C 297.582031 234.355469 297.589844 234.378906 297.59375 234.40625 C 297.652344 234.589844 297.710938 234.785156 297.765625 234.984375 C 297.777344 235.035156 297.789062 235.078125 297.800781 235.128906 C 297.816406 235.179688 297.828125 235.230469 297.84375 235.285156 C 297.867188 235.390625 297.894531 235.5 297.917969 235.609375 C 297.929688 235.667969 297.941406 235.71875 297.953125 235.777344 C 297.972656 235.851562 297.988281 235.929688 298 236.003906 C 298.019531 236.105469 298.042969 236.203125 298.058594 236.304688 C 298.078125 236.402344 298.09375 236.503906 298.113281 236.605469 C 298.125 236.671875 298.136719 236.742188 298.148438 236.8125 C 298.191406 237.089844 298.230469 237.375 298.269531 237.667969 C 298.273438 237.714844 298.277344 237.765625 298.28125 237.8125 C 298.289062 237.863281 298.292969 237.914062 298.300781 237.960938 C 298.316406 238.085938 298.328125 238.214844 298.339844 238.339844 C 298.347656 238.457031 298.359375 238.578125 298.371094 238.699219 C 298.378906 238.8125 298.386719 238.929688 298.394531 239.046875 C 298.398438 239.15625 298.40625 239.265625 298.414062 239.378906 C 298.421875 239.492188 298.425781 239.609375 298.433594 239.726562 C 298.4375 239.796875 298.4375 239.871094 298.4375 239.9375 C 298.441406 240.015625 298.445312 240.097656 298.445312 240.175781 C 298.449219 240.222656 298.449219 240.265625 298.449219 240.3125 C 298.453125 240.375 298.453125 240.4375 298.453125 240.503906 C 298.457031 240.648438 298.457031 240.792969 298.457031 240.941406 C 298.457031 241.105469 298.457031 241.269531 298.453125 241.429688 Z M 276.851562 252.644531 C 278.007812 252.644531 279.011719 251.40625 279.695312 249.164062 C 280.0625 247.953125 280.316406 246.5 280.449219 244.925781 L 281.546875 245.027344 C 281.730469 246.351562 282 247.570312 282.351562 248.625 C 283.210938 251.21875 284.476562 252.644531 285.914062 252.644531 L 285.925781 252.644531 Z M 236.839844 252.644531 C 238.8125 252.644531 240.546875 250.851562 241.71875 247.59375 C 242.113281 246.5 242.433594 245.265625 242.675781 243.933594 L 256.984375 244.085938 C 257.121094 245.828125 257.429688 247.722656 257.882812 249.046875 C 258.671875 251.367188 259.835938 252.644531 261.164062 252.644531 C 261.167969 252.644531 236.839844 252.644531 236.839844 252.644531 Z M 231.691406 243.945312 C 231.351562 242.308594 231.15625 240.429688 231.15625 238.429688 C 231.15625 232.09375 233.089844 226.957031 235.472656 226.957031 C 237.855469 226.957031 239.785156 232.09375 239.785156 238.429688 C 239.785156 240.503906 239.582031 242.453125 239.21875 244.132812 C 238.472656 247.578125 237.074219 249.902344 235.472656 249.902344 C 233.839844 249.902344 232.425781 247.496094 231.691406 243.945312 Z M 227.015625 243.554688 C 226.5 245.957031 225.65625 247.871094 224.636719 248.945312 C 224.050781 249.5625 223.40625 249.902344 222.726562 249.902344 C 220.832031 249.902344 219.191406 247.222656 218.386719 243.316406 C 218.054688 241.699219 217.871094 239.871094 217.871094 237.929688 C 217.871094 231.316406 220.046875 225.957031 222.726562 225.957031 C 223.40625 225.957031 224.050781 226.296875 224.632812 226.914062 C 226.371094 228.742188 227.585938 232.984375 227.585938 237.929688 C 227.585938 239.964844 227.378906 241.878906 227.015625 243.554688 Z M 202.96875 247.59375 C 204.375 250.851562 206.449219 252.644531 208.808594 252.644531 L 192.539062 252.644531 C 194.691406 252.644531 196.578125 251.019531 197.859375 248.078125 C 198.515625 246.570312 198.984375 244.769531 199.238281 242.820312 L 207.589844 243.039062 C 207.589844 243.042969 213.40625 243.074219 213.40625 243.074219 L 213.40625 243.0625 C 213.40625 242.734375 213.410156 242.40625 213.414062 242.078125 C 213.417969 241.925781 213.417969 241.769531 213.421875 241.609375 C 213.667969 231.9375 216.644531 226.140625 218.628906 223.535156 L 220.097656 223.535156 C 216.078125 229.175781 215.644531 239.199219 215.75 243.257812 C 215.773438 244.363281 215.824219 245.027344 215.824219 245.027344 L 202.019531 244.75 C 202.277344 245.769531 202.597656 246.722656 202.96875 247.59375 Z M 161.78125 238.101562 L 154.710938 237.855469 L 154.710938 235.128906 L 162.0625 235.433594 L 199.355469 236.980469 L 205.230469 237.226562 C 205.230469 237.226562 205.578125 232.84375 207.507812 228.476562 L 208.808594 228.503906 C 207.15625 232.578125 207.15625 239.691406 207.15625 239.691406 L 199.460938 239.421875 Z M 244.421875 237.917969 L 282.976562 240.28125 L 282.976562 241.414062 L 244.382812 240.074219 Z M 132.84375 234.367188 C 132.84375 228.0625 135.304688 222.953125 138.339844 222.953125 C 141.371094 222.953125 143.832031 228.0625 143.832031 234.367188 C 143.832031 240.671875 141.371094 245.785156 138.339844 245.785156 C 135.304688 245.785156 132.84375 240.671875 132.84375 234.367188 Z M 79.230469 232.945312 L 107.328125 232.945312 L 107.328125 234.3125 L 79.230469 234.3125 Z M 78.796875 221.984375 C 78.796875 221.644531 78.933594 221.335938 79.160156 221.113281 C 79.382812 220.890625 79.6875 220.753906 80.027344 220.753906 L 105.667969 220.753906 C 106.34375 220.753906 106.898438 221.304688 106.898438 221.984375 C 106.898438 222.320312 106.757812 222.628906 106.535156 222.847656 C 106.3125 223.070312 106.003906 223.207031 105.667969 223.207031 L 80.027344 223.207031 C 79.347656 223.207031 78.796875 222.660156 78.796875 221.984375 Z M 79.160156 213.261719 C 79.382812 213.039062 79.6875 212.902344 80.027344 212.902344 L 105.667969 212.902344 C 106.34375 212.902344 106.898438 213.453125 106.898438 214.128906 C 106.898438 214.464844 106.757812 214.773438 106.535156 215 C 106.3125 215.21875 106.003906 215.355469 105.667969 215.355469 L 80.027344 215.355469 C 79.347656 215.355469 78.796875 214.808594 78.796875 214.128906 C 78.796875 213.789062 78.933594 213.484375 79.160156 213.261719 Z M 79.160156 205.410156 C 79.382812 205.1875 79.6875 205.050781 80.027344 205.050781 L 105.667969 205.050781 C 106.34375 205.050781 106.898438 205.597656 106.898438 206.277344 C 106.898438 206.617188 106.757812 206.921875 106.535156 207.144531 C 106.3125 207.363281 106.003906 207.503906 105.667969 207.503906 L 80.027344 207.503906 C 79.347656 207.503906 78.796875 206.957031 78.796875 206.277344 C 78.796875 205.9375 78.933594 205.632812 79.160156 205.410156 Z M 79.160156 197.558594 C 79.382812 197.335938 79.6875 197.199219 80.027344 197.199219 L 105.667969 197.199219 C 106.34375 197.199219 106.898438 197.746094 106.898438 198.425781 C 106.898438 198.761719 106.757812 199.070312 106.535156 199.292969 C 106.3125 199.515625 106.003906 199.652344 105.667969 199.652344 L 80.027344 199.652344 C 79.347656 199.652344 78.796875 199.101562 78.796875 198.425781 C 78.796875 198.085938 78.933594 197.78125 79.160156 197.558594 Z M 71.074219 214.191406 C 70.472656 216.253906 69.890625 219.527344 69.890625 219.527344 L 63.628906 219.535156 C 63.628906 219.535156 64.039062 216.492188 64.753906 214.246094 C 64.964844 213.585938 65.558594 213.117188 66.25 213.0625 L 70.15625 213.0625 C 70.777344 213.011719 71.246094 213.597656 71.074219 214.191406 Z M 67.992188 231.65625 C 67.925781 233.234375 67.132812 234.042969 66.25 234.03125 C 65.238281 234.015625 64.785156 232.957031 64.867188 231.597656 C 64.941406 230.324219 65.628906 229.414062 66.511719 229.425781 C 67.390625 229.441406 68.050781 230.285156 67.992188 231.65625 Z M 118.886719 213.980469 C 119.183594 213.453125 119.722656 213.109375 120.332031 213.0625 L 127.371094 213.0625 C 128.195312 213 128.796875 213.824219 128.488281 214.589844 C 127.871094 216.121094 127.484375 217.910156 127.3125 219.535156 L 117.011719 219.535156 C 117.378906 217.191406 118.242188 215.144531 118.886719 213.980469 Z M 121.589844 230.773438 C 121.503906 232.746094 120.515625 233.753906 119.414062 233.738281 C 118.15625 233.71875 117.585938 232.402344 117.6875 230.699219 C 117.78125 229.113281 118.640625 227.976562 119.742188 227.992188 C 120.839844 228.007812 121.660156 229.0625 121.589844 230.773438 Z M 303.101562 252.644531 L 303.105469 252.644531 C 304.355469 252.644531 305.449219 251.261719 306.191406 248.753906 C 306.785156 246.730469 307.117188 244.085938 307.117188 241.3125 C 307.117188 238.539062 306.785156 235.894531 306.191406 233.871094 C 306.003906 233.226562 305.789062 232.664062 305.554688 232.171875 L 319.632812 233.234375 L 319.632812 231.421875 L 215.441406 220.386719 L 215.441406 130.554688 L 319.890625 165.691406 L 319.890625 163.867188 L 215.441406 124.664062 L 194.75 124.664062 L 194.75 220.804688 C 192.84375 223.230469 192.007812 225.953125 192.007812 225.953125 L 153.484375 223.28125 C 153.222656 221.4375 152.90625 219.816406 152.527344 218.515625 C 152.527344 218.511719 188.015625 221.144531 188.015625 221.144531 L 188.015625 219.515625 L 150.273438 215.085938 C 150.179688 215.066406 150.089844 215.054688 149.988281 215.054688 C 151.558594 222.171875 151.886719 230 151.886719 235.296875 C 151.886719 239.089844 151.71875 241.585938 151.71875 241.585938 L 157.242188 241.847656 C 157.476562 244.167969 158.035156 246.324219 158.878906 248.078125 C 160.28125 251.019531 162.355469 252.644531 164.714844 252.644531 L 137.875 252.644531 C 141.054688 252.644531 143.84375 250.417969 145.738281 246.371094 C 147.261719 243.109375 148.101562 238.84375 148.101562 234.367188 C 148.101562 229.890625 147.261719 225.625 145.738281 222.363281 C 143.84375 218.320312 141.054688 216.089844 137.875 216.089844 L 136.554688 216.089844 C 135.722656 217.292969 135.015625 218.609375 134.445312 219.847656 C 133.726562 221.394531 133.117188 223.027344 132.605469 224.660156 C 131.984375 226.644531 131.507812 228.632812 131.164062 230.488281 C 130.820312 232.308594 130.597656 234.003906 130.492188 235.429688 C 130.292969 238.042969 128.160156 240.066406 125.53125 240.128906 L 117.011719 240.128906 C 117.410156 242.507812 118.035156 244.609375 118.859375 246.371094 C 120.75 250.417969 123.542969 252.644531 126.722656 252.644531 L 83.265625 252.644531 C 86.578125 252.644531 89.488281 250.417969 91.457031 246.371094 C 92.519531 244.191406 93.265625 240.839844 93.640625 238 L 125.476562 238 C 127 237.960938 128.242188 236.78125 128.359375 235.265625 C 129.082031 225.820312 133.855469 209.738281 142.867188 209.675781 C 144.070312 209.667969 145.539062 209.945312 146.890625 210.566406 C 147.496094 210.839844 148.101562 210.199219 147.789062 209.617188 C 142.800781 200.445312 132.035156 200.261719 124.519531 204.589844 C 116.464844 209.230469 113.195312 218.636719 111.667969 224.59375 L 111.328125 224.609375 L 111.328125 195.84375 L 143.351562 185.53125 L 140.933594 185.53125 L 108.089844 192.933594 L 79.617188 192.933594 L 89.679688 185.53125 L 87.820312 185.53125 C 83.503906 187.960938 76.371094 191.9375 75.109375 192.933594 L 75.109375 224.035156 L 73.210938 224.035156 L 73.210938 202.230469 C 68.765625 204.699219 65.839844 208.140625 63.328125 212.289062 C 58.71875 219.890625 58.574219 233.386719 58.746094 235.757812 C 58.914062 238.128906 61 238.007812 61 238.007812 L 61.414062 238 C 61.414062 240.535156 61.800781 242.992188 63.453125 246.371094 C 65.429688 250.410156 68.332031 252.644531 71.644531 252.644531 L 44.589844 252.644531 L 44.589844 255.691406 L 338.066406 255.691406 L 338.066406 252.644531 L 303.101562 252.644531 " fill-opacity="1" fill-rule="nonzero"/></g><path fill="#000000" d="M 173.476562 184.378906 L 171.25 184.699219 L 168.148438 189.359375 L 159.546875 190 L 159.546875 191.441406 L 169.027344 190.738281 L 172.140625 185.988281 L 175.117188 185.667969 C 176.273438 185.542969 177.152344 184.570312 177.152344 183.410156 L 177.152344 166.023438 C 177.152344 164.171875 175.648438 162.671875 173.789062 162.671875 L 168.78125 162.671875 L 168.78125 161.597656 C 166.378906 160.175781 163.191406 159.550781 161.492188 159.300781 C 160.84375 159.207031 160.238281 159.65625 160.140625 160.308594 L 156.753906 183.046875 C 160.21875 182.476562 164.070312 182.398438 167.449219 182.496094 C 167.433594 182.449219 167.417969 182.398438 167.402344 182.351562 C 167.242188 181.839844 167.167969 181.308594 167.167969 180.773438 L 167.167969 165.046875 L 173.527344 164.914062 C 174.222656 164.914062 174.792969 165.480469 174.792969 166.175781 L 174.785156 182.871094 C 174.785156 183.628906 174.226562 184.269531 173.476562 184.378906 " fill-opacity="1" fill-rule="nonzero"/><g clip-path="url(#864851a491)"><path fill="#000000" d="M 136.390625 126.730469 C 118.550781 132.753906 111.703125 145.886719 111.703125 145.886719 L 155.71875 145.886719 L 154.710938 147.917969 L 106.898438 147.917969 C 106.898438 147.917969 116.785156 129.707031 136.390625 126.730469 Z M 98.464844 156.296875 L 160.808594 156.296875 L 160.808594 152.273438 C 165.738281 135.339844 186.40625 122.171875 186.40625 122.171875 L 145.730469 122.171875 C 133.390625 122.355469 119.085938 127.796875 110.265625 136.417969 C 104.261719 142.285156 100.929688 148.597656 100.003906 152.359375 L 95.832031 152.359375 L 94.328125 157.539062 L 97.054688 160 L 98.464844 156.296875 " fill-opacity="1" fill-rule="nonzero"/></g><path fill="#000000" d="M 142.527344 234.082031 C 142.527344 230.453125 139.886719 227.511719 138.339844 227.511719 C 136.792969 227.511719 135.542969 230.453125 135.542969 234.082031 C 135.542969 237.714844 136.792969 240.65625 138.339844 240.65625 C 139.886719 240.65625 142.527344 237.714844 142.527344 234.082031 " fill-opacity="1" fill-rule="nonzero"/><path fill="#000000" d="M 223.5 230.5 C 223.671875 230.5 223.847656 230.597656 224.023438 230.78125 C 224.074219 230.835938 224.15625 230.847656 224.222656 230.804688 C 224.28125 230.757812 224.304688 230.679688 224.273438 230.613281 C 223.824219 229.671875 223.292969 229.171875 222.726562 229.171875 C 221.167969 229.171875 219.945312 233.089844 219.945312 238.089844 C 219.945312 243.089844 221.167969 247.007812 222.726562 247.007812 C 223.292969 247.007812 223.824219 246.511719 224.273438 245.570312 C 224.304688 245.5 224.28125 245.421875 224.222656 245.375 C 224.15625 245.335938 224.074219 245.347656 224.023438 245.398438 C 223.847656 245.585938 223.671875 245.679688 223.5 245.679688 C 222.515625 245.679688 221.457031 242.632812 221.457031 238.089844 C 221.457031 233.550781 222.515625 230.5 223.5 230.5 " fill-opacity="1" fill-rule="nonzero"/><path fill="#000000" d="M 90.421875 162.640625 L 90.421875 184.984375 L 89.050781 185.992188 L 85.207031 185.992188 C 84.246094 185.992188 83.46875 185.210938 83.46875 184.253906 L 83.46875 164.394531 C 83.46875 163.425781 84.253906 162.640625 85.222656 162.640625 L 90.421875 162.640625 " fill-opacity="1" fill-rule="nonzero"/><path fill="#000000" d="M 98.929688 164.757812 L 85.90625 164.757812 L 85.90625 162.640625 L 98.929688 162.640625 L 98.929688 164.757812 " fill-opacity="1" fill-rule="nonzero"/><path fill="#000000" d="M 89.679688 185.53125 L 88.84375 184.699219 L 85.46875 183.714844 L 86.570312 184.699219 L 87.820312 185.53125 L 89.679688 185.53125 " fill-opacity="1" fill-rule="nonzero"/><g clip-path="url(#f477122dc1)"><path fill="#303030" d="M 187.558594 53.921875 C 113.847656 53.921875 53.878906 113.886719 53.878906 187.597656 C 53.878906 261.308594 113.847656 321.277344 187.558594 321.277344 C 261.269531 321.277344 321.234375 261.308594 321.234375 187.597656 C 321.234375 113.886719 261.269531 53.921875 187.558594 53.921875 Z M 187.558594 324.84375 C 111.878906 324.84375 50.3125 263.277344 50.3125 187.597656 C 50.3125 111.921875 111.878906 50.355469 187.558594 50.355469 C 263.234375 50.355469 324.804688 111.921875 324.804688 187.597656 C 324.804688 263.277344 263.234375 324.84375 187.558594 324.84375 " fill-opacity="1" fill-rule="nonzero"/></g><g clip-path="url(#0e378409dd)"><g clip-path="url(#deb28d7df9)"><g transform="matrix(1, 0, 0, 1, 314, 228)"><g clip-path="url(#36aaf9a0d0)"><g clip-path="url(#ad167bdf13)"><g clip-path="url(#abb5cb595f)"><rect x="-396.5" width="540" fill="#ffffff" height="539.999987" y="-310.499998" fill-opacity="1"/></g></g></g></g></g></g><g clip-path="url(#9519debf4b)"><g clip-path="url(#d5613fc88f)"><g transform="matrix(1, 0, 0, 1, 55, 232)"><g clip-path="url(#15f2ed0b98)"><g clip-path="url(#d4ead34bd2)"><g clip-path="url(#d6dd07cd81)"><rect x="-137.5" width="540" fill="#ffffff" height="539.999987" y="-314.499998" fill-opacity="1"/></g></g></g></g></g></g><g clip-path="url(#44fdc49e97)"><path fill="#303030" d="M 187.355469 13.113281 C 91.289062 13.113281 13.136719 91.269531 13.136719 187.335938 C 13.136719 283.402344 91.289062 361.554688 187.355469 361.554688 C 283.421875 361.554688 361.574219 283.402344 361.574219 187.335938 C 361.574219 91.269531 283.421875 13.113281 187.355469 13.113281 Z M 187.355469 366.207031 C 88.726562 366.207031 8.484375 285.964844 8.484375 187.335938 C 8.484375 88.707031 88.726562 8.464844 187.355469 8.464844 C 285.984375 8.464844 366.222656 88.707031 366.222656 187.335938 C 366.222656 285.964844 285.984375 366.207031 187.355469 366.207031 " fill-opacity="1" fill-rule="nonzero"/></g><g transform="matrix(1, 0, 0, 1, 19, 17)"><g clip-path="url(#addecffac2)"><g fill="#000000" fill-opacity="1"><g transform="translate(26.297505, 147.128305)"><g><path d="M 0.375 -1.5 L -0.0625 -1.609375 C -0.113281 -2.179688 -0.382812 -2.613281 -0.875 -2.90625 C -1.375 -3.207031 -2.203125 -3.503906 -3.359375 -3.796875 L -17.546875 -7.328125 C -18.703125 -7.609375 -19.570312 -7.734375 -20.15625 -7.703125 C -20.738281 -7.679688 -21.175781 -7.425781 -21.46875 -6.9375 L -21.90625 -7.046875 L -19.921875 -15 C -19.347656 -17.300781 -18.539062 -19.148438 -17.5 -20.546875 C -16.457031 -21.941406 -15.285156 -22.972656 -13.984375 -23.640625 C -12.679688 -24.304688 -11.347656 -24.695312 -9.984375 -24.8125 C -8.628906 -24.925781 -7.363281 -24.835938 -6.1875 -24.546875 C -3.894531 -23.992188 -1.992188 -23.023438 -0.484375 -21.640625 C 1.015625 -20.265625 2.035156 -18.585938 2.578125 -16.609375 C 3.128906 -14.640625 3.113281 -12.488281 2.53125 -10.15625 Z M -1.296875 -6.84375 C -0.554688 -6.65625 0.0390625 -6.640625 0.5 -6.796875 C 0.96875 -6.953125 1.3125 -7.46875 1.53125 -8.34375 L 1.953125 -10.0625 C 2.597656 -12.625 2.351562 -14.773438 1.21875 -16.515625 C 0.0820312 -18.253906 -2.179688 -19.546875 -5.578125 -20.390625 C -7.765625 -20.929688 -9.835938 -21.039062 -11.796875 -20.71875 C -13.765625 -20.394531 -15.460938 -19.597656 -16.890625 -18.328125 C -18.316406 -17.054688 -19.328125 -15.226562 -19.921875 -12.84375 L -20.234375 -11.5625 Z M -1.296875 -6.84375 "/></g></g></g><g fill="#000000" fill-opacity="1"><g transform="translate(33.645754, 120.80393)"><g><path d="M 0.34375 -0.859375 L -0.078125 -1.03125 C -0.046875 -1.59375 -0.253906 -2.054688 -0.703125 -2.421875 C -1.160156 -2.785156 -1.941406 -3.1875 -3.046875 -3.625 L -10.0625 -6.40625 C -10.945312 -6.757812 -11.570312 -6.882812 -11.9375 -6.78125 C -12.3125 -6.6875 -12.660156 -6.476562 -12.984375 -6.15625 L -13.40625 -6.328125 L -13.578125 -11.046875 L -13.21875 -11.265625 L -1.8125 -6.734375 C -0.707031 -6.296875 0.128906 -6.046875 0.703125 -5.984375 C 1.285156 -5.929688 1.757812 -6.128906 2.125 -6.578125 L 2.546875 -6.40625 Z M -18.078125 -8.78125 C -18.671875 -9.019531 -19.085938 -9.421875 -19.328125 -9.984375 C -19.578125 -10.554688 -19.585938 -11.125 -19.359375 -11.6875 C -19.117188 -12.300781 -18.71875 -12.71875 -18.15625 -12.9375 C -17.601562 -13.164062 -17.03125 -13.160156 -16.4375 -12.921875 C -15.863281 -12.691406 -15.453125 -12.296875 -15.203125 -11.734375 C -14.953125 -11.179688 -14.941406 -10.609375 -15.171875 -10.015625 C -15.398438 -9.453125 -15.796875 -9.046875 -16.359375 -8.796875 C -16.929688 -8.554688 -17.503906 -8.550781 -18.078125 -8.78125 Z M -18.078125 -8.78125 "/></g></g></g><g fill="#000000" fill-opacity="1"><g transform="translate(37.916182, 110.092494)"><g><path d="M 3.59375 -6.296875 C 3.039062 -5.234375 2.382812 -4.304688 1.625 -3.515625 C 0.863281 -2.722656 0.148438 -2.144531 -0.515625 -1.78125 L -4.46875 -3.5 L -4.375 -3.8125 C -2.65625 -3.695312 -1.085938 -3.914062 0.328125 -4.46875 C 1.742188 -5.03125 2.800781 -5.957031 3.5 -7.25 C 3.988281 -8.144531 4.113281 -8.992188 3.875 -9.796875 C 3.644531 -10.597656 3.203125 -11.171875 2.546875 -11.515625 C 1.617188 -12.003906 0.738281 -12.015625 -0.09375 -11.546875 C -0.925781 -11.078125 -1.867188 -10.320312 -2.921875 -9.28125 C -3.765625 -8.425781 -4.546875 -7.710938 -5.265625 -7.140625 C -5.992188 -6.578125 -6.726562 -6.238281 -7.46875 -6.125 C -8.21875 -6.007812 -9.023438 -6.179688 -9.890625 -6.640625 C -10.628906 -7.023438 -11.21875 -7.582031 -11.65625 -8.3125 C -12.101562 -9.050781 -12.304688 -9.941406 -12.265625 -10.984375 C -12.222656 -12.023438 -11.859375 -13.203125 -11.171875 -14.515625 C -10.734375 -15.359375 -10.234375 -16.144531 -9.671875 -16.875 C -9.109375 -17.613281 -8.59375 -18.175781 -8.125 -18.5625 L -4.859375 -17.015625 L -4.984375 -16.65625 C -6.265625 -16.695312 -7.46875 -16.460938 -8.59375 -15.953125 C -9.726562 -15.453125 -10.570312 -14.671875 -11.125 -13.609375 C -11.601562 -12.691406 -11.773438 -11.847656 -11.640625 -11.078125 C -11.503906 -10.316406 -11.128906 -9.769531 -10.515625 -9.4375 C -9.703125 -9.019531 -8.890625 -9.046875 -8.078125 -9.515625 C -7.273438 -9.992188 -6.304688 -10.765625 -5.171875 -11.828125 C -4.515625 -12.460938 -3.832031 -13.070312 -3.125 -13.65625 C -2.425781 -14.238281 -1.675781 -14.632812 -0.875 -14.84375 C -0.0703125 -15.050781 0.828125 -14.894531 1.828125 -14.375 C 2.554688 -13.988281 3.191406 -13.429688 3.734375 -12.703125 C 4.285156 -11.972656 4.582031 -11.078125 4.625 -10.015625 C 4.675781 -8.953125 4.332031 -7.710938 3.59375 -6.296875 Z M 3.59375 -6.296875 "/></g></g></g><g fill="#000000" fill-opacity="1"><g transform="translate(46.632743, 94.080193)"><g><path d="M 3.75 -4.90625 C 3.113281 -3.988281 2.316406 -3.503906 1.359375 -3.453125 C 0.398438 -3.398438 -0.804688 -3.875 -2.265625 -4.875 L -11.5625 -11.21875 L -12.734375 -9.5 L -13.171875 -9.796875 L -13.984375 -16.296875 L -13.6875 -16.734375 L -10.109375 -14.296875 L -7.234375 -18.484375 L -6.875 -18.09375 L -9.671875 -14 L -0.359375 -7.640625 C 0.472656 -7.066406 1.1875 -6.800781 1.78125 -6.84375 C 2.382812 -6.882812 2.890625 -7.203125 3.296875 -7.796875 C 3.515625 -8.097656 3.679688 -8.519531 3.796875 -9.0625 C 3.910156 -9.613281 3.84375 -10.304688 3.59375 -11.140625 L 4.046875 -11.21875 C 4.378906 -9.9375 4.550781 -8.765625 4.5625 -7.703125 C 4.570312 -6.648438 4.300781 -5.71875 3.75 -4.90625 Z M 3.75 -4.90625 "/></g></g></g><g fill="#000000" fill-opacity="1"><g transform="translate(55.310446, 81.582639)"><g><path d="M 0.609375 -0.703125 L 0.265625 -1 C 0.484375 -1.519531 0.4375 -2.023438 0.125 -2.515625 C -0.175781 -3.003906 -0.773438 -3.640625 -1.671875 -4.421875 L -7.375 -9.375 C -8.09375 -10.007812 -8.644531 -10.335938 -9.03125 -10.359375 C -9.414062 -10.390625 -9.8125 -10.304688 -10.21875 -10.109375 L -10.5625 -10.40625 L -9.171875 -14.921875 L -8.75 -14.984375 L -5.75 -12.390625 C -6.300781 -13.546875 -6.503906 -14.78125 -6.359375 -16.09375 C -6.285156 -16.84375 -6.113281 -17.53125 -5.84375 -18.15625 C -5.582031 -18.78125 -5.191406 -19.390625 -4.671875 -19.984375 C -4.304688 -20.410156 -3.925781 -20.726562 -3.53125 -20.9375 C -3.132812 -21.144531 -2.804688 -21.140625 -2.546875 -20.921875 C -2.367188 -20.753906 -2.207031 -20.5 -2.0625 -20.15625 C -1.914062 -19.820312 -1.851562 -19.445312 -1.875 -19.03125 C -1.894531 -18.613281 -2.070312 -18.210938 -2.40625 -17.828125 C -2.707031 -17.484375 -3.140625 -17.113281 -3.703125 -16.71875 C -4.265625 -16.332031 -5.007812 -15.84375 -5.9375 -15.25 C -5.957031 -14.707031 -5.851562 -14.039062 -5.625 -13.25 C -5.40625 -12.46875 -5.003906 -11.796875 -4.421875 -11.234375 L 0.515625 -6.9375 C 1.410156 -6.15625 2.117188 -5.644531 2.640625 -5.40625 C 3.171875 -5.175781 3.679688 -5.207031 4.171875 -5.5 L 4.515625 -5.203125 Z M 0.609375 -0.703125 "/></g></g></g><g fill="#000000" fill-opacity="1"><g transform="translate(67.682366, 67.918008)"><g><path d="M 0.671875 -0.625 L 0.359375 -0.953125 C 0.640625 -1.460938 0.648438 -1.976562 0.390625 -2.5 C 0.140625 -3.019531 -0.390625 -3.710938 -1.203125 -4.578125 L -6.359375 -10.09375 C -7.003906 -10.800781 -7.519531 -11.1875 -7.90625 -11.25 C -8.289062 -11.320312 -8.691406 -11.273438 -9.109375 -11.109375 L -9.421875 -11.4375 L -7.546875 -15.796875 L -7.140625 -15.828125 L 1.234375 -6.859375 C 2.046875 -5.992188 2.703125 -5.410156 3.203125 -5.109375 C 3.703125 -4.816406 4.207031 -4.789062 4.71875 -5.03125 L 5.03125 -4.703125 Z M -12.59375 -15.671875 C -13.03125 -16.140625 -13.234375 -16.679688 -13.203125 -17.296875 C -13.179688 -17.910156 -12.953125 -18.425781 -12.515625 -18.84375 C -12.035156 -19.289062 -11.492188 -19.492188 -10.890625 -19.453125 C -10.285156 -19.421875 -9.765625 -19.171875 -9.328125 -18.703125 C -8.910156 -18.253906 -8.707031 -17.722656 -8.71875 -17.109375 C -8.738281 -16.503906 -8.984375 -15.988281 -9.453125 -15.5625 C -9.890625 -15.144531 -10.414062 -14.945312 -11.03125 -14.96875 C -11.65625 -14.988281 -12.175781 -15.222656 -12.59375 -15.671875 Z M -12.59375 -15.671875 "/></g></g></g><g fill="#000000" fill-opacity="1"><g transform="translate(75.915728, 60.038411)"><g><path d="M 7.859375 -5.375 C 6.910156 -4.675781 5.894531 -4.222656 4.8125 -4.015625 C 3.726562 -3.804688 2.738281 -3.800781 1.84375 -4 L 2.015625 -1.46875 L 1.734375 -1.265625 L -10.96875 -18.6875 C -11.53125 -19.457031 -12 -19.894531 -12.375 -20 C -12.75 -20.113281 -13.148438 -20.125 -13.578125 -20.03125 L -13.84375 -20.390625 L -11.46875 -24.484375 L -11.046875 -24.46875 L -4.21875 -15.109375 C -3.863281 -16.023438 -3.425781 -16.910156 -2.90625 -17.765625 C -2.382812 -18.617188 -1.742188 -19.320312 -0.984375 -19.875 C 0.265625 -20.789062 1.566406 -21.269531 2.921875 -21.3125 C 4.273438 -21.363281 5.546875 -21.082031 6.734375 -20.46875 C 7.929688 -19.851562 8.929688 -19 9.734375 -17.90625 C 10.710938 -16.550781 11.3125 -15.113281 11.53125 -13.59375 C 11.75 -12.070312 11.554688 -10.585938 10.953125 -9.140625 C 10.359375 -7.691406 9.328125 -6.4375 7.859375 -5.375 Z M 1.03125 -7.90625 C 1.40625 -7.394531 1.90625 -6.972656 2.53125 -6.640625 C 3.164062 -6.316406 3.84375 -6.085938 4.5625 -5.953125 C 5.28125 -5.828125 5.988281 -5.820312 6.6875 -5.9375 C 7.394531 -6.0625 7.992188 -6.304688 8.484375 -6.671875 C 9.421875 -7.359375 9.984375 -8.113281 10.171875 -8.9375 C 10.359375 -9.757812 10.285156 -10.609375 9.953125 -11.484375 C 9.617188 -12.359375 9.164062 -13.191406 8.59375 -13.984375 C 8.238281 -14.460938 7.78125 -14.984375 7.21875 -15.546875 C 6.664062 -16.109375 6.035156 -16.632812 5.328125 -17.125 C 4.617188 -17.625 3.859375 -18.015625 3.046875 -18.296875 C 2.242188 -18.585938 1.429688 -18.695312 0.609375 -18.625 C -0.210938 -18.550781 -1.023438 -18.222656 -1.828125 -17.640625 C -2.316406 -17.285156 -2.726562 -16.851562 -3.0625 -16.34375 C -3.394531 -15.832031 -3.675781 -15.28125 -3.90625 -14.6875 Z M 1.03125 -7.90625 "/></g></g></g><g fill="#000000" fill-opacity="1"><g transform="translate(94.618207, 46.752679)"><g><path d="M 6.28125 -2.84375 C 4.75 -2.0625 3.394531 -1.960938 2.21875 -2.546875 C 1.039062 -3.128906 0 -4.304688 -0.90625 -6.078125 L -3.59375 -11.328125 C -4.03125 -12.179688 -4.421875 -12.691406 -4.765625 -12.859375 C -5.109375 -13.023438 -5.507812 -13.09375 -5.96875 -13.0625 L -6.171875 -13.46875 L -3.1875 -17.140625 L -2.765625 -17.046875 L 1.890625 -7.96875 C 2.691406 -6.414062 3.460938 -5.335938 4.203125 -4.734375 C 4.953125 -4.140625 5.894531 -4.132812 7.03125 -4.71875 C 7.6875 -5.050781 8.265625 -5.585938 8.765625 -6.328125 C 9.273438 -7.066406 9.707031 -7.976562 10.0625 -9.0625 L 6.3125 -16.390625 C 5.875 -17.242188 5.476562 -17.753906 5.125 -17.921875 C 4.78125 -18.097656 4.382812 -18.171875 3.9375 -18.140625 L 3.734375 -18.546875 L 6.703125 -22.21875 L 7.125 -22.125 L 12.71875 -11.21875 C 13.257812 -10.15625 13.726562 -9.414062 14.125 -9 C 14.53125 -8.582031 15.019531 -8.414062 15.59375 -8.5 L 15.796875 -8.09375 L 12.8125 -6.578125 C 12.039062 -6.171875 11.457031 -6.359375 11.0625 -7.140625 L 10.375 -8.453125 C 9.957031 -7.222656 9.398438 -6.097656 8.703125 -5.078125 C 8.003906 -4.054688 7.195312 -3.3125 6.28125 -2.84375 Z M 6.28125 -2.84375 "/></g></g></g><g fill="#000000" fill-opacity="1"><g transform="translate(114.647569, 37.069249)"><g><path d="M 0.859375 -0.328125 L 0.703125 -0.75 C 1.148438 -1.101562 1.351562 -1.566406 1.3125 -2.140625 C 1.28125 -2.722656 1.054688 -3.570312 0.640625 -4.6875 L -2 -11.765625 C -2.332031 -12.660156 -2.660156 -13.210938 -2.984375 -13.421875 C -3.304688 -13.628906 -3.695312 -13.742188 -4.15625 -13.765625 L -4.3125 -14.1875 L -0.90625 -17.484375 L -0.5 -17.359375 L 3.78125 -5.859375 C 4.195312 -4.742188 4.578125 -3.953125 4.921875 -3.484375 C 5.273438 -3.023438 5.734375 -2.804688 6.296875 -2.828125 L 6.453125 -2.40625 Z M -5.609375 -19.296875 C -5.828125 -19.890625 -5.804688 -20.46875 -5.546875 -21.03125 C -5.296875 -21.601562 -4.890625 -21.992188 -4.328125 -22.203125 C -3.710938 -22.429688 -3.128906 -22.410156 -2.578125 -22.140625 C -2.035156 -21.878906 -1.65625 -21.453125 -1.4375 -20.859375 C -1.21875 -20.285156 -1.234375 -19.71875 -1.484375 -19.15625 C -1.734375 -18.59375 -2.15625 -18.203125 -2.75 -17.984375 C -3.3125 -17.773438 -3.875 -17.796875 -4.4375 -18.046875 C -5 -18.304688 -5.390625 -18.722656 -5.609375 -19.296875 Z M -5.609375 -19.296875 "/></g></g></g><g fill="#000000" fill-opacity="1"><g transform="translate(125.304426, 32.970167)"><g><path d="M 7.859375 -1.515625 C 6.515625 -1.210938 5.242188 -1.304688 4.046875 -1.796875 C 2.859375 -2.285156 1.832031 -3.046875 0.96875 -4.078125 C 0.101562 -5.109375 -0.488281 -6.28125 -0.8125 -7.59375 C -1.207031 -9.238281 -1.207031 -10.804688 -0.8125 -12.296875 C -0.425781 -13.785156 0.332031 -15.085938 1.46875 -16.203125 C 2.613281 -17.316406 4.113281 -18.097656 5.96875 -18.546875 C 6.644531 -18.710938 7.28125 -18.785156 7.875 -18.765625 C 8.476562 -18.753906 9.039062 -18.6875 9.5625 -18.5625 L 8.203125 -24.1875 C 7.972656 -25.113281 7.707031 -25.703125 7.40625 -25.953125 C 7.113281 -26.203125 6.75 -26.359375 6.3125 -26.421875 L 6.203125 -26.859375 L 9.953125 -29.75 L 10.328125 -29.5625 L 15.5625 -8.078125 C 15.84375 -6.929688 16.125 -6.101562 16.40625 -5.59375 C 16.695312 -5.09375 17.132812 -4.820312 17.71875 -4.78125 L 17.828125 -4.34375 L 14.578125 -3.546875 C 13.722656 -3.335938 13.191406 -3.660156 12.984375 -4.515625 L 12.65625 -5.84375 C 12.363281 -5.28125 12 -4.695312 11.5625 -4.09375 C 11.125 -3.5 10.597656 -2.960938 9.984375 -2.484375 C 9.378906 -2.015625 8.671875 -1.691406 7.859375 -1.515625 Z M 1.6875 -10.9375 C 1.875 -10.1875 2.160156 -9.347656 2.546875 -8.421875 C 2.929688 -7.503906 3.441406 -6.65625 4.078125 -5.875 C 4.710938 -5.09375 5.46875 -4.5 6.34375 -4.09375 C 7.21875 -3.6875 8.234375 -3.625 9.390625 -3.90625 C 10.085938 -4.070312 10.691406 -4.394531 11.203125 -4.875 C 11.710938 -5.363281 12.144531 -5.910156 12.5 -6.515625 L 10.78125 -13.5625 C 10.59375 -14.34375 10.191406 -15.078125 9.578125 -15.765625 C 8.960938 -16.453125 8.234375 -16.972656 7.390625 -17.328125 C 6.546875 -17.691406 5.675781 -17.765625 4.78125 -17.546875 C 3.601562 -17.265625 2.765625 -16.753906 2.265625 -16.015625 C 1.773438 -15.285156 1.503906 -14.46875 1.453125 -13.5625 C 1.398438 -12.664062 1.476562 -11.789062 1.6875 -10.9375 Z M 1.6875 -10.9375 "/></g></g></g><g fill="#000000" fill-opacity="1"><g transform="translate(146.843184, 27.946345)"><g><path d="M 9.78125 -0.46875 C 8.707031 -0.382812 7.640625 -0.457031 6.578125 -0.6875 C 5.515625 -0.914062 4.535156 -1.328125 3.640625 -1.921875 C 2.742188 -2.515625 2.003906 -3.296875 1.421875 -4.265625 C 0.835938 -5.242188 0.488281 -6.429688 0.375 -7.828125 C 0.269531 -9.160156 0.410156 -10.382812 0.796875 -11.5 C 1.191406 -12.625 1.769531 -13.609375 2.53125 -14.453125 C 3.300781 -15.296875 4.191406 -15.96875 5.203125 -16.46875 C 6.210938 -16.976562 7.273438 -17.28125 8.390625 -17.375 C 9.421875 -17.457031 10.453125 -17.390625 11.484375 -17.171875 C 12.523438 -16.953125 13.5 -16.546875 14.40625 -15.953125 C 15.320312 -15.359375 16.078125 -14.566406 16.671875 -13.578125 C 17.265625 -12.597656 17.625 -11.390625 17.75 -9.953125 C 17.863281 -8.554688 17.695312 -7.285156 17.25 -6.140625 C 16.8125 -5.003906 16.191406 -4.035156 15.390625 -3.234375 C 14.597656 -2.429688 13.703125 -1.789062 12.703125 -1.3125 C 11.710938 -0.832031 10.738281 -0.550781 9.78125 -0.46875 Z M 3.453125 -10.546875 C 3.523438 -9.585938 3.75 -8.550781 4.125 -7.4375 C 4.507812 -6.332031 5.019531 -5.296875 5.65625 -4.328125 C 6.300781 -3.367188 7.0625 -2.597656 7.9375 -2.015625 C 8.8125 -1.441406 9.785156 -1.195312 10.859375 -1.28125 C 11.921875 -1.363281 12.738281 -1.703125 13.3125 -2.296875 C 13.894531 -2.898438 14.28125 -3.632812 14.46875 -4.5 C 14.664062 -5.375 14.726562 -6.269531 14.65625 -7.1875 C 14.570312 -8.226562 14.3125 -9.332031 13.875 -10.5 C 13.4375 -11.664062 12.863281 -12.742188 12.15625 -13.734375 C 11.445312 -14.734375 10.632812 -15.507812 9.71875 -16.0625 C 8.800781 -16.613281 7.816406 -16.789062 6.765625 -16.59375 C 5.835938 -16.425781 5.117188 -16.039062 4.609375 -15.4375 C 4.097656 -14.832031 3.753906 -14.101562 3.578125 -13.25 C 3.410156 -12.394531 3.367188 -11.492188 3.453125 -10.546875 Z M 3.453125 -10.546875 "/></g></g></g><g fill="#000000" fill-opacity="1"><g transform="translate(169.933604, 26.472613)"><g><path d="M 0.921875 0.0625 L 0.953125 -0.390625 C 1.503906 -0.535156 1.878906 -0.878906 2.078125 -1.421875 C 2.273438 -1.972656 2.410156 -2.835938 2.484375 -4.015625 L 2.953125 -11.5625 C 3.015625 -12.507812 2.941406 -13.144531 2.734375 -13.46875 C 2.523438 -13.789062 2.21875 -14.050781 1.8125 -14.25 L 1.828125 -14.703125 L 6.265625 -16.34375 L 6.578125 -16.0625 L 6.328125 -12.09375 C 6.898438 -13.238281 7.757812 -14.15625 8.90625 -14.84375 C 9.539062 -15.238281 10.1875 -15.519531 10.84375 -15.6875 C 11.507812 -15.851562 12.238281 -15.914062 13.03125 -15.875 C 13.582031 -15.832031 14.0625 -15.71875 14.46875 -15.53125 C 14.875 -15.351562 15.066406 -15.09375 15.046875 -14.75 C 15.023438 -14.507812 14.921875 -14.222656 14.734375 -13.890625 C 14.554688 -13.566406 14.296875 -13.285156 13.953125 -13.046875 C 13.609375 -12.816406 13.1875 -12.71875 12.6875 -12.75 C 12.226562 -12.78125 11.671875 -12.898438 11.015625 -13.109375 C 10.359375 -13.316406 9.515625 -13.613281 8.484375 -14 C 8.046875 -13.675781 7.582031 -13.191406 7.09375 -12.546875 C 6.601562 -11.898438 6.3125 -11.164062 6.21875 -10.34375 L 5.8125 -3.8125 C 5.738281 -2.632812 5.769531 -1.757812 5.90625 -1.1875 C 6.039062 -0.625 6.375 -0.238281 6.90625 -0.03125 L 6.875 0.421875 Z M 0.921875 0.0625 "/></g></g></g><g fill="#000000" fill-opacity="1"><g transform="translate(188.060915, 27.736022)"><g><path d="M 13.1875 2.640625 C 12.332031 2.460938 11.988281 1.945312 12.15625 1.09375 L 13.21875 -4.234375 C 12.675781 -3.035156 12 -1.972656 11.1875 -1.046875 C 10.375 -0.117188 9.460938 0.570312 8.453125 1.03125 C 7.453125 1.5 6.394531 1.617188 5.28125 1.390625 C 4.09375 1.160156 3.140625 0.59375 2.421875 -0.3125 C 1.703125 -1.226562 1.476562 -2.359375 1.75 -3.703125 C 1.96875 -4.816406 2.484375 -5.65625 3.296875 -6.21875 C 4.109375 -6.78125 5.117188 -7.1875 6.328125 -7.4375 C 7.546875 -7.6875 8.851562 -7.859375 10.25 -7.953125 L 14.03125 -8.28125 C 14.332031 -9.863281 14.160156 -11.070312 13.515625 -11.90625 C 12.867188 -12.738281 11.941406 -13.273438 10.734375 -13.515625 C 9.835938 -13.691406 8.90625 -13.660156 7.9375 -13.421875 C 6.976562 -13.179688 5.992188 -12.644531 4.984375 -11.8125 L 4.703125 -12.171875 C 5.835938 -13.109375 7.082031 -13.789062 8.4375 -14.21875 C 9.789062 -14.65625 11.195312 -14.726562 12.65625 -14.4375 C 14.601562 -14.039062 15.941406 -13.238281 16.671875 -12.03125 C 17.410156 -10.832031 17.582031 -9.25 17.1875 -7.28125 L 15.9375 -1.078125 C 15.707031 0.0859375 15.617188 0.960938 15.671875 1.546875 C 15.722656 2.128906 16 2.5625 16.5 2.84375 L 16.40625 3.28125 Z M 4.953125 -4.234375 C 4.742188 -3.179688 4.910156 -2.351562 5.453125 -1.75 C 5.992188 -1.144531 6.628906 -0.769531 7.359375 -0.625 C 8.148438 -0.46875 8.894531 -0.570312 9.59375 -0.9375 C 10.300781 -1.300781 10.941406 -1.820312 11.515625 -2.5 C 12.097656 -3.175781 12.582031 -3.910156 12.96875 -4.703125 C 13.363281 -5.503906 13.632812 -6.265625 13.78125 -6.984375 L 13.953125 -7.828125 L 10.296875 -7.515625 C 9.898438 -7.484375 9.425781 -7.410156 8.875 -7.296875 C 8.332031 -7.191406 7.785156 -7.03125 7.234375 -6.8125 C 6.679688 -6.59375 6.195312 -6.269531 5.78125 -5.84375 C 5.363281 -5.425781 5.085938 -4.890625 4.953125 -4.234375 Z M 4.953125 -4.234375 "/></g></g></g><g fill="#000000" fill-opacity="1"><g transform="translate(208.534581, 32.327278)"><g/></g></g><g fill="#000000" fill-opacity="1"><g transform="translate(218.157996, 34.840813)"><g><path d="M 1.234375 0.59375 L 1.4375 0.1875 C 2.007812 0.269531 2.488281 0.09375 2.875 -0.34375 C 3.257812 -0.78125 3.707031 -1.535156 4.21875 -2.609375 L 9.703125 -14.015625 C 10.273438 -15.222656 10.65625 -16.203125 10.84375 -16.953125 C 11.03125 -17.710938 11.054688 -18.332031 10.921875 -18.8125 C 10.785156 -19.289062 10.523438 -19.71875 10.140625 -20.09375 L 10.34375 -20.5 L 14.78125 -18.375 L 16.265625 -2.75 L 29.0625 -11.53125 L 33.25 -9.515625 L 33.046875 -9.109375 C 32.523438 -9.171875 32.035156 -9.101562 31.578125 -8.90625 C 31.117188 -8.707031 30.644531 -8.300781 30.15625 -7.6875 C 29.675781 -7.070312 29.148438 -6.160156 28.578125 -4.953125 L 23.09375 6.453125 C 22.582031 7.523438 22.28125 8.347656 22.1875 8.921875 C 22.101562 9.503906 22.269531 9.988281 22.6875 10.375 L 22.484375 10.78125 L 16.984375 8.140625 L 17.1875 7.734375 C 17.75 7.816406 18.222656 7.640625 18.609375 7.203125 C 18.992188 6.765625 19.441406 6.007812 19.953125 4.9375 L 26.828125 -9.375 L 13.765625 -0.328125 L 13.09375 -0.640625 L 11.484375 -16.390625 L 5.609375 -4.109375 C 5.035156 -2.910156 4.660156 -1.925781 4.484375 -1.15625 C 4.316406 -0.394531 4.316406 0.234375 4.484375 0.734375 C 4.660156 1.234375 4.972656 1.6875 5.421875 2.09375 L 5.21875 2.5 Z M 1.234375 0.59375 "/></g></g></g><g fill="#000000" fill-opacity="1"><g transform="translate(245.239026, 48.612314)"><g><path d="M 10.921875 7.859375 C 10.210938 7.347656 10.113281 6.738281 10.625 6.03125 L 13.796875 1.625 C 12.804688 2.476562 11.742188 3.160156 10.609375 3.671875 C 9.484375 4.179688 8.367188 4.4375 7.265625 4.4375 C 6.171875 4.445312 5.160156 4.117188 4.234375 3.453125 C 3.253906 2.742188 2.617188 1.828125 2.328125 0.703125 C 2.046875 -0.410156 2.304688 -1.523438 3.109375 -2.640625 C 3.773438 -3.566406 4.59375 -4.117188 5.5625 -4.296875 C 6.539062 -4.472656 7.632812 -4.421875 8.84375 -4.140625 C 10.050781 -3.859375 11.316406 -3.476562 12.640625 -3 L 16.203125 -1.71875 C 17.128906 -3.050781 17.46875 -4.226562 17.21875 -5.25 C 16.976562 -6.28125 16.359375 -7.15625 15.359375 -7.875 C 14.617188 -8.40625 13.757812 -8.753906 12.78125 -8.921875 C 11.800781 -9.097656 10.679688 -9.023438 9.421875 -8.703125 L 9.328125 -9.125 C 10.722656 -9.507812 12.128906 -9.617188 13.546875 -9.453125 C 14.960938 -9.285156 16.28125 -8.769531 17.5 -7.90625 C 19.113281 -6.738281 20 -5.453125 20.15625 -4.046875 C 20.320312 -2.648438 19.820312 -1.132812 18.65625 0.5 L 14.953125 5.625 C 14.253906 6.59375 13.8125 7.347656 13.625 7.890625 C 13.4375 8.441406 13.507812 8.945312 13.84375 9.40625 L 13.578125 9.78125 Z M 6.265625 -1.796875 C 5.628906 -0.929688 5.429688 -0.113281 5.671875 0.65625 C 5.921875 1.425781 6.347656 2.03125 6.953125 2.46875 C 7.609375 2.9375 8.332031 3.148438 9.125 3.109375 C 9.925781 3.078125 10.726562 2.867188 11.53125 2.484375 C 12.332031 2.109375 13.070312 1.640625 13.75 1.078125 C 14.4375 0.523438 15 -0.0507812 15.4375 -0.65625 L 15.9375 -1.359375 L 12.484375 -2.59375 C 12.109375 -2.71875 11.648438 -2.84375 11.109375 -2.96875 C 10.566406 -3.101562 10 -3.179688 9.40625 -3.203125 C 8.8125 -3.222656 8.238281 -3.128906 7.6875 -2.921875 C 7.132812 -2.722656 6.660156 -2.347656 6.265625 -1.796875 Z M 6.265625 -1.796875 "/></g></g></g><g fill="#000000" fill-opacity="1"><g transform="translate(261.958631, 61.215612)"><g><path d="M 0.734375 0.65625 L 1.03125 0.328125 C 1.5625 0.566406 2.070312 0.535156 2.5625 0.234375 C 3.0625 -0.0664062 3.710938 -0.660156 4.515625 -1.546875 L 16.203125 -14.421875 C 16.847656 -15.128906 17.1875 -15.671875 17.21875 -16.046875 C 17.25 -16.429688 17.175781 -16.832031 17 -17.25 L 17.296875 -17.578125 L 21.78125 -16.078125 L 21.84375 -15.65625 L 6.984375 0.703125 C 6.179688 1.585938 5.65625 2.289062 5.40625 2.8125 C 5.15625 3.332031 5.164062 3.84375 5.4375 4.34375 L 5.140625 4.671875 Z M 0.734375 0.65625 "/></g></g></g><g fill="#000000" fill-opacity="1"><g transform="translate(270.622488, 69.069581)"><g><path d="M 10.671875 -6.890625 C 11.191406 -7.953125 11.519531 -8.785156 11.65625 -9.390625 C 11.800781 -10.003906 11.804688 -10.5 11.671875 -10.875 L 12.015625 -11.1875 L 15.75 -6.984375 L 15.40625 -6.671875 C 14.894531 -6.972656 14.503906 -6.90625 14.234375 -6.46875 C 13.960938 -6.03125 13.578125 -5.269531 13.078125 -4.1875 L 8.765625 4.859375 L 17.96875 1.421875 C 19.09375 0.992188 19.816406 0.566406 20.140625 0.140625 C 20.460938 -0.273438 20.488281 -0.738281 20.21875 -1.25 L 20.5625 -1.5625 L 22.890625 1.0625 L 22.546875 1.375 C 22.109375 1.113281 21.578125 1.019531 20.953125 1.09375 C 20.328125 1.164062 19.445312 1.40625 18.3125 1.8125 L 5.796875 6.53125 L 4.765625 5.375 Z M 10.671875 -6.890625 "/></g></g></g><g fill="#000000" fill-opacity="1"><g transform="translate(283.120376, 83.764212)"><g><path d="M 0.53125 0.75 L 0.90625 0.484375 C 1.351562 0.816406 1.851562 0.890625 2.40625 0.703125 C 2.96875 0.523438 3.734375 0.09375 4.703125 -0.59375 L 10.84375 -4.96875 C 11.625 -5.519531 12.070312 -5.976562 12.1875 -6.34375 C 12.300781 -6.707031 12.3125 -7.113281 12.21875 -7.5625 L 12.59375 -7.828125 L 16.65625 -5.40625 L 16.625 -4.984375 L 6.640625 2.125 C 5.671875 2.8125 5.003906 3.382812 4.640625 3.84375 C 4.273438 4.300781 4.1875 4.800781 4.375 5.34375 L 4 5.609375 Z M 17.1875 -10.421875 C 17.707031 -10.785156 18.273438 -10.914062 18.890625 -10.8125 C 19.503906 -10.707031 19.984375 -10.410156 20.328125 -9.921875 C 20.710938 -9.390625 20.84375 -8.820312 20.71875 -8.21875 C 20.601562 -7.625 20.285156 -7.144531 19.765625 -6.78125 C 19.265625 -6.425781 18.710938 -6.296875 18.109375 -6.390625 C 17.515625 -6.484375 17.03125 -6.789062 16.65625 -7.3125 C 16.3125 -7.800781 16.1875 -8.351562 16.28125 -8.96875 C 16.382812 -9.582031 16.6875 -10.066406 17.1875 -10.421875 Z M 17.1875 -10.421875 "/></g></g></g><g fill="#000000" fill-opacity="1"><g transform="translate(289.840184, 92.982319)"><g><path d="M 0.4375 0.8125 L 0.828125 0.59375 C 1.242188 0.976562 1.734375 1.113281 2.296875 1 C 2.867188 0.882812 3.675781 0.539062 4.71875 -0.03125 L 11.34375 -3.640625 C 12.1875 -4.097656 12.6875 -4.5 12.84375 -4.84375 C 13.007812 -5.195312 13.070312 -5.597656 13.03125 -6.046875 L 13.421875 -6.265625 L 17.1875 -3.390625 L 17.109375 -2.984375 L 14.6875 -1.65625 C 15.757812 -1.21875 16.84375 -0.640625 17.9375 0.078125 C 19.039062 0.804688 19.894531 1.726562 20.5 2.84375 C 21.21875 4.15625 21.429688 5.421875 21.140625 6.640625 C 20.847656 7.867188 19.851562 8.941406 18.15625 9.859375 L 11.96875 13.234375 C 10.925781 13.804688 10.195312 14.296875 9.78125 14.703125 C 9.375 15.117188 9.222656 15.609375 9.328125 16.171875 L 8.9375 16.390625 L 6.078125 11.15625 L 6.46875 10.9375 C 6.882812 11.320312 7.375 11.457031 7.9375 11.34375 C 8.507812 11.226562 9.316406 10.882812 10.359375 10.3125 L 16.03125 7.21875 C 17.34375 6.507812 18.207031 5.679688 18.625 4.734375 C 19.050781 3.785156 18.96875 2.773438 18.375 1.703125 C 18.019531 1.023438 17.5 0.453125 16.8125 -0.015625 C 16.125 -0.484375 15.25 -0.941406 14.1875 -1.390625 L 6.328125 2.890625 C 5.285156 3.460938 4.554688 3.957031 4.140625 4.375 C 3.734375 4.789062 3.582031 5.273438 3.6875 5.828125 L 3.296875 6.046875 Z M 0.4375 0.8125 "/></g></g></g><g fill="#000000" fill-opacity="1"><g transform="translate(300.357076, 112.946534)"><g><path d="M 4.59375 12.640625 C 4.300781 11.816406 4.566406 11.253906 5.390625 10.953125 L 10.484375 9.109375 C 9.179688 9.253906 7.921875 9.222656 6.703125 9.015625 C 5.484375 8.804688 4.414062 8.390625 3.5 7.765625 C 2.59375 7.140625 1.941406 6.296875 1.546875 5.234375 C 1.140625 4.097656 1.132812 2.984375 1.53125 1.890625 C 1.9375 0.804688 2.785156 0.03125 4.078125 -0.4375 C 5.140625 -0.820312 6.125 -0.8125 7.03125 -0.40625 C 7.9375 -0.0078125 8.804688 0.640625 9.640625 1.546875 C 10.484375 2.460938 11.3125 3.488281 12.125 4.625 L 14.359375 7.6875 C 15.878906 7.113281 16.828125 6.335938 17.203125 5.359375 C 17.578125 4.378906 17.550781 3.3125 17.125 2.15625 C 16.8125 1.289062 16.300781 0.507812 15.59375 -0.1875 C 14.882812 -0.882812 13.914062 -1.453125 12.6875 -1.890625 L 12.84375 -2.296875 C 14.226562 -1.828125 15.457031 -1.125 16.53125 -0.1875 C 17.613281 0.75 18.410156 1.914062 18.921875 3.3125 C 19.597656 5.1875 19.609375 6.75 18.953125 8 C 18.296875 9.25 17.023438 10.21875 15.140625 10.90625 L 9.1875 13.078125 C 8.070312 13.484375 7.28125 13.859375 6.8125 14.203125 C 6.34375 14.546875 6.117188 15 6.140625 15.5625 L 5.71875 15.71875 Z M 6.1875 2.03125 C 5.175781 2.394531 4.554688 2.960938 4.328125 3.734375 C 4.097656 4.515625 4.109375 5.257812 4.359375 5.96875 C 4.640625 6.71875 5.117188 7.300781 5.796875 7.71875 C 6.472656 8.132812 7.25 8.410156 8.125 8.546875 C 9 8.679688 9.875 8.707031 10.75 8.625 C 11.632812 8.550781 12.425781 8.390625 13.125 8.140625 L 13.9375 7.84375 L 11.78125 4.90625 C 11.53125 4.570312 11.21875 4.195312 10.84375 3.78125 C 10.476562 3.375 10.054688 2.992188 9.578125 2.640625 C 9.109375 2.296875 8.582031 2.050781 8 1.90625 C 7.425781 1.757812 6.820312 1.800781 6.1875 2.03125 Z M 6.1875 2.03125 "/></g></g></g><g fill="#000000" fill-opacity="1"><g transform="translate(307.155094, 132.553264)"><g><path d="M 1.265625 7.140625 C 1.015625 5.972656 0.925781 4.84375 1 3.75 C 1.082031 2.65625 1.257812 1.753906 1.53125 1.046875 L 5.671875 -0.1875 L 5.796875 0.109375 C 4.398438 1.128906 3.335938 2.304688 2.609375 3.640625 C 1.890625 4.972656 1.675781 6.359375 1.96875 7.796875 C 2.164062 8.804688 2.609375 9.539062 3.296875 10 C 3.992188 10.46875 4.707031 10.625 5.4375 10.46875 C 6.457031 10.25 7.140625 9.691406 7.484375 8.796875 C 7.828125 7.898438 8.0625 6.710938 8.1875 5.234375 C 8.289062 4.046875 8.441406 3 8.640625 2.09375 C 8.835938 1.195312 9.179688 0.46875 9.671875 -0.09375 C 10.160156 -0.664062 10.882812 -1.054688 11.84375 -1.265625 C 12.65625 -1.441406 13.46875 -1.390625 14.28125 -1.109375 C 15.101562 -0.828125 15.832031 -0.273438 16.46875 0.546875 C 17.101562 1.378906 17.578125 2.519531 17.890625 3.96875 C 18.085938 4.894531 18.207031 5.820312 18.25 6.75 C 18.289062 7.6875 18.253906 8.445312 18.140625 9.03125 L 14.640625 9.9375 L 14.5 9.578125 C 15.519531 8.796875 16.296875 7.847656 16.828125 6.734375 C 17.367188 5.628906 17.515625 4.488281 17.265625 3.3125 C 17.046875 2.300781 16.632812 1.539062 16.03125 1.03125 C 15.4375 0.53125 14.796875 0.351562 14.109375 0.5 C 13.210938 0.695312 12.609375 1.234375 12.296875 2.109375 C 11.984375 2.992188 11.738281 4.207031 11.5625 5.75 C 11.457031 6.664062 11.320312 7.570312 11.15625 8.46875 C 11 9.363281 10.675781 10.148438 10.1875 10.828125 C 9.695312 11.503906 8.90625 11.960938 7.8125 12.203125 C 7 12.367188 6.148438 12.347656 5.265625 12.140625 C 4.378906 11.941406 3.578125 11.445312 2.859375 10.65625 C 2.140625 9.875 1.609375 8.703125 1.265625 7.140625 Z M 1.265625 7.140625 "/></g></g></g></g></g><g clip-path="url(#b7444bb3fc)"><path fill="#303030" d="M 187.558594 53.921875 C 113.847656 53.921875 53.878906 113.886719 53.878906 187.597656 C 53.878906 261.308594 113.847656 321.277344 187.558594 321.277344 C 261.269531 321.277344 321.234375 261.308594 321.234375 187.597656 C 321.234375 113.886719 261.269531 53.921875 187.558594 53.921875 Z M 187.558594 324.84375 C 111.878906 324.84375 50.3125 263.277344 50.3125 187.597656 C 50.3125 111.921875 111.878906 50.355469 187.558594 50.355469 C 263.234375 50.355469 324.804688 111.921875 324.804688 187.597656 C 324.804688 263.277344 263.234375 324.84375 187.558594 324.84375 " fill-opacity="1" fill-rule="nonzero"/></g></svg>